<?xml version="1.0" encoding="UTF-8"?><svg id="a" xmlns="http://www.w3.org/2000/svg" viewBox="0 0 48.96 37.3"><defs><style>.b{fill:#00357d;}.c{fill:#ffcc45;}</style></defs><g><path class="b" d="M5.32,13.72c0-3.67,1.89-5.78,5.2-5.78,1.49,0,2.7,.5,3.29,1.39l-1.17,1.53c-.48-.59-1.25-.93-2.1-.93-1.83,0-3.01,1.34-3.01,3.71,0,2.59,1.16,3.89,3.45,3.89,.78,0,1.52-.16,2.27-.48l.37,1.94c-.94,.36-1.9,.54-2.9,.54-3.58,0-5.39-1.94-5.39-5.81Z"/><path class="b" d="M14.35,15.16c0-2.78,1.4-4.36,3.82-4.36s3.82,1.59,3.82,4.36-1.4,4.36-3.82,4.36-3.82-1.59-3.82-4.36Zm5.36,0c0-1.49-.56-2.32-1.54-2.32s-1.54,.83-1.54,2.32,.56,2.33,1.54,2.33,1.54-.84,1.54-2.33Z"/><path class="b" d="M22.75,15.24c0-2.82,1.18-4.44,3.24-4.44,1.28,0,1.9,.56,2.1,1.68h.21V7.46h2.15v11.9l-1.84,.08-.26-1.38h-.22c-.17,.97-.93,1.46-2.15,1.46-2.04,0-3.22-1.52-3.22-4.28Zm3.82-2.42c-.99,0-1.55,.88-1.55,2.42,0,1.41,.53,2.13,1.55,2.13,1.16,0,1.73-.6,1.73-1.83v-.45c0-1.52-.58-2.27-1.73-2.27Z"/><path class="b" d="M31.77,15.14c0-2.75,1.41-4.35,3.86-4.35s3.77,1.44,3.77,4.13c0,.4-.02,.75-.05,1.09h-5.34c.33,.98,1.19,1.48,2.51,1.48,.76,0,1.49-.08,2.26-.22l.21,2.03c-1.08,.19-1.98,.22-2.66,.22-2.91,0-4.56-1.56-4.56-4.38Zm5.52-.63c0-1.13-.61-1.75-1.64-1.75-.97,0-1.59,.63-1.74,1.75h3.38Z"/><path class="b" d="M5.83,21.89h2.09v5.51c2.44-.45,3.54-2.94,3.54-5.51h2.13c0,2.25-.76,4.39-2.17,5.83l2.71,5.44h-2.59l-1.89-4.17c-.53,.25-1.1,.42-1.73,.52v3.65h-2.09v-11.27Z"/><path class="b" d="M14.54,31.18h3.11v-4.44h-2.63v-1.99h4.78v6.44h2.49v1.98h-7.74v-1.98Zm2.71-8.94c0-.82,.55-1.37,1.37-1.37s1.37,.56,1.37,1.37-.56,1.37-1.37,1.37-1.37-.56-1.37-1.37Z"/><path class="b" d="M28.29,28.22c0-1.02-.44-1.59-1.21-1.59-1.07,0-1.62,.77-1.62,2.33v4.2h-2.15v-8.41h1.92l.2,1.52h.24c.16-1.13,.72-1.68,1.98-1.68,1.78,0,2.79,1.13,2.79,3.09v5.48h-2.15v-4.94Z"/><path class="b" d="M31.46,29.03c0-2.82,1.18-4.44,3.24-4.44,1.28,0,1.9,.56,2.1,1.68h.23l.13-1.52h1.99v7.67c0,3-1.34,4.36-4.42,4.46l-2.46,.08-.08-1.87,2.7-.08c1.47-.04,2.09-.82,2.09-2.33v-.81h-.16c-.17,.97-.93,1.46-2.15,1.46-2.04,0-3.22-1.52-3.22-4.28Zm5.55-.19c0-1.5-.56-2.23-1.69-2.23-1.02,0-1.6,.88-1.6,2.42,0,1.41,.55,2.13,1.6,2.13,1.13,0,1.69-.6,1.69-1.83v-.49Z"/><path class="b" d="M40.64,33.08l.25-2.05c1.33,.17,2.24,.25,2.75,.25,1.38,0,1.97-.18,1.97-.62,0-.25-.15-.39-.5-.49l-2.66-.79c-1.13-.33-1.69-.97-1.69-2.1,0-1.81,1.51-2.68,4.61-2.68,.71,0,1.49,.06,2.36,.16l-.23,1.99c-.97-.08-1.67-.11-2.17-.11-1.6,0-2.29,.17-2.29,.6,0,.27,.14,.39,.48,.48l2.28,.65c1.44,.41,2.16,1.12,2.16,2.31,0,1.79-1.41,2.65-4.31,2.65-1.29,0-2.26-.08-3.01-.24Z"/></g><path class="c" d="M11.68,7.12s-.04,.07-.08,.07c-.04,0-.05-.05-.06-.09-.07-.32-.36-.54-.67-.63-.59-.17-1.29-.02-1.87,.11h0c-.59,.18-1.17,.38-1.73,.63-.54,.25-1.01,.58-1.49,.93-.29,.21-.57,.49-.68,.84-.05,.17-.04,.35,.01,.52,.01,.04,.13,.3,.21,.39,.02,.02,0,.05-.02,.06-.23,.07-.49-.03-.69-.16-.19-.12-.37-.27-.53-.44-.01-.02-.03-.03-.04-.05h0L1.53,5.78c-.33,.07-.67-.1-.81-.42-.18-.42,.06-.92,.53-1.01,.29-.06,.59,.07,.75,.31,.17,.26,.16,.56,.01,.79,.65,1.06,1.59,1.67,2.11,1.36,.07-.04,.12-.09,.17-.16,.11-.15,.16-.36,.17-.6,0-.4-.12-.91-.38-1.42-.29,.01-.57-.15-.7-.44-.18-.42,.06-.92,.53-1.01,.29-.06,.59,.07,.75,.31,.2,.3,.15,.67-.08,.91,.48,.54,1.01,.82,1.5,.88,.58,.06,1.1-.18,1.43-.67,.26-.4,.4-.97,.32-1.68-.25-.03-.48-.18-.58-.43-.18-.42,.06-.92,.53-1.02,.29-.06,.59,.07,.75,.31,.23,.34,.13,.77-.17,1,.18,.46,.41,.84,.67,1.11,.16,.17,.32,.29,.49,.35,.14,.05,.27,.06,.4,.03,.58-.17,.78-1.27,.44-2.47-.23-.04-.44-.2-.54-.43-.18-.42,.06-.92,.53-1.02,.29-.06,.59,.07,.75,.31,.23,.35,.13,.78-.18,1l.88,4.25s0,.02,0,.04h0s.02,.04,.02,.06c.06,.37,.02,.75-.14,1.1Z"/></svg>