<?xml version="1.0" encoding="UTF-8"?><svg id="a" xmlns="http://www.w3.org/2000/svg" viewBox="0 0 489.05 489.05"><defs><style>.b{fill:#ffcc45;}.c{fill:#00357d;font-family:CascadiaCode-Bold, Cascadia Code;font-size:111.92px;letter-spacing:-.05em;}</style></defs><text class="c" transform="translate(108.5 238.17)"><tspan x="0" y="0">Code</tspan><tspan x="0" y="95">Kings</tspan></text><path class="b" d="M156.58,153.85c-.1,.22-.27,.49-.52,.45-.25-.03-.34-.34-.39-.6-.47-2.17-2.48-3.75-4.62-4.34-4.05-1.15-8.9-.1-12.9,.75h-.02c-4.03,1.25-8.06,2.59-11.89,4.37-3.74,1.73-6.95,4.03-10.26,6.43-2,1.45-3.95,3.36-4.67,5.79-.34,1.16-.27,2.44,.09,3.59,.09,.27,.88,2.05,1.44,2.67,.12,.14,.06,.34-.11,.39-1.56,.48-3.34-.19-4.77-1.07-1.34-.82-2.56-1.84-3.62-3-.1-.11-.2-.22-.25-.35-.02,0-.03,.02-.04,0l-17.38-24.32c-2.27,.45-4.63-.72-5.6-2.92-1.26-2.88,.38-6.3,3.64-6.99,1.99-.42,4.08,.46,5.19,2.16,1.16,1.77,1.07,3.87,.08,5.47,4.46,7.32,10.95,11.5,14.53,9.33,.45-.28,.84-.64,1.15-1.09,.73-1.01,1.11-2.45,1.14-4.13,.04-2.77-.85-6.25-2.59-9.77-2.01,.08-3.95-1.06-4.81-3.01-1.26-2.88,.39-6.3,3.64-6.99,1.99-.41,4.08,.46,5.19,2.16,1.37,2.08,1,4.64-.53,6.27,3.29,3.72,6.96,5.66,10.36,6.05,3.98,.45,7.6-1.21,9.84-4.62,1.82-2.76,2.73-6.69,2.17-11.55-1.72-.21-3.28-1.27-4.02-2.97-1.26-2.89,.39-6.31,3.65-6.99,1.97-.41,4.06,.46,5.16,2.13,1.56,2.36,.9,5.32-1.16,6.87,1.22,3.15,2.86,5.8,4.61,7.62,1.1,1.15,2.24,1.97,3.36,2.38,.95,.36,1.89,.44,2.76,.18,4.01-1.15,5.35-8.75,3.01-17-1.58-.29-3-1.34-3.68-2.93-1.27-2.88,.38-6.3,3.65-6.99,1.97-.41,4.06,.47,5.16,2.14,1.58,2.38,.89,5.38-1.22,6.9l6.05,29.27c.02,.09,.03,.17,.04,.25-.02,0-.04,0-.06,0,.06,.14,.1,.29,.13,.44,.43,2.54,.1,5.2-.93,7.55Z"/></svg>